:SAMPLES-PER-SECOND 30
:FRAME-RANGE 1-2045
:FULLY-SPECIFIED
:DEGREES
1343
root  58.4477 38.1348 -45.8182 178.096 -61.8998 -172.411
RightUpLeg  -28.1825 10.6001 -12.8762
RightLeg  25.8343 -6.77629 -3.77794
RightFoot  -9.27519 -0.209314 8.09312
RightToes  -5.28216e-011 1.2921e-014 -6.02303e-014
Spine  3.25669 -1.32287 7.27121
Spine1  5.45239 -1.2977 0.197114
HEad  3.10991 56.2166 -18.1457
LeftShoulder1  1.25943 -1.48873 -20.0613
LeftArm  -2.81038 -1.04427 -57.5391
LeftForeArm  15.5737 -6.32531 -11.3274
LeftHand  -0.0198625 0.791936 0.39787
RightShoulder  1.29919 1.01294 23.8966
RightArm  -33.8285 -12.9755 38.5785
RightForeArm  52.4263 0.730738 0.582648
RightHand  -0.0615376 -4.80373 -8.42135
LeftUpLeg  -3.45023 -8.98921 -12.6907
LeftLeg  23.0651 8.79916 4.43428
LeftFoot  -17.5465 0.667721 10.3373
LeftToes  9.43379e-011 5.24309e-011 -4.66411e-011
1344
root  57.2284 38.0812 -46.637 178.241 -63.3727 -172.066
RightUpLeg  -28.1238 6.42764 -11.575
RightLeg  13.4572 -0.292247 -0.812832
RightFoot  -10.6497 -0.134458 10.2332
RightToes  -5.28216e-011 1.2921e-014 -6.02303e-014
Spine  2.47252 -1.42091 7.1155
Spine1  5.74472 -1.24455 -0.125566
HEad  2.26501 55.1433 -18.2612
LeftShoulder1  1.30262 -1.68064 -19.9067
LeftArm  -2.63462 -1.57458 -56.963
LeftForeArm  14.4307 -6.84802 -11.2012
LeftHand  -0.0382168 0.887295 0.872525
RightShoulder  1.31428 1.07904 23.7843
RightArm  -33.8723 -13.7741 38.6519
RightForeArm  52.1306 1.42474 0.747385
RightHand  -0.0567699 -4.87992 -8.54639
LeftUpLeg  -0.959703 -9.11364 -12.4566
LeftLeg  22.2508 7.61818 3.81532
LeftFoot  -18.1964 0.682174 9.53554
LeftToes  9.43379e-011 5.24309e-011 -4.66411e-011
1345
root  55.9391 37.9032 -47.4749 178.039 -64.956 -171.879
RightUpLeg  -27.8092 -1.42674 -7.39346
RightLeg  5.48055 11.3662 -0.760155
RightFoot  -11.3309 -0.0788295 15.6492
RightToes  -5.28216e-011 1.2921e-014 -6.02303e-014
Spine  1.71494 -1.70216 6.69449
Spine1  6.3268 -1.48598 -0.253695
HEad  2.12019 54.3378 -18.2642
LeftShoulder1  1.36311 -1.87576 -20.1049
LeftArm  -2.35551 -2.00417 -55.8655
LeftForeArm  12.8887 -6.87229 -11.255
LeftHand  -0.0551643 1.4373 1.41435
RightShoulder  1.29894 1.07424 23.4466
RightArm  -34.0103 -13.7646 39.187
RightForeArm  51.7645 1.84187 0.817355
RightHand  -0.0564968 -4.89489 -8.77176
LeftUpLeg  1.73893 -8.94481 -12.2428
LeftLeg  22.335 6.15411 3.16775
LeftFoot  -19.1245 0.706077 8.66849
LeftToes  9.43379e-011 5.24309e-011 -4.66411e-011
1346
root  54.5929 37.5967 -48.3304 178.18 -66.9473 -172.186
RightUpLeg  -28.6769 -1.58245 -6.97549
RightLeg  5.37311 12.873 -0.302989
RightFoot  -12.0529 0.0228158 16.8264
RightToes  -5.28216e-011 1.2921e-014 -6.02303e-014
Spine  0.930809 -2.14168 5.83016
Spine1  6.69858 -1.99504 -0.17978
HEad  3.37844 54.0705 -17.5971
LeftShoulder1  1.42686 -2.07309 -20.3418
LeftArm  -3.5613 -2.18918 -54.878
LeftForeArm  12.9452 -5.86049 -11.2525
LeftHand  -0.0587213 1.63582 1.56946
RightShoulder  1.25575 0.937365 23.3736
RightArm  -33.6393 -12.7048 39.5112
RightForeArm  51.2899 1.27305 0.876165
RightHand  -0.0468816 -5.05166 -9.55653
LeftUpLeg  3.95704 -8.72282 -12.0905
LeftLeg  23.8644 4.29476 2.42839
LeftFoot  -20.1339 0.720798 7.78585
LeftToes  9.43379e-011 5.24309e-011 -4.66411e-011
1347
root  53.2612 37.3741 -49.1134 175.913 -68.6769 -170.141
RightUpLeg  -30.3288 2.84023 -8.11698
RightLeg  11.7757 10.4156 1.29096
RightFoot  -8.65665 -0.46019 16.9945
RightToes  -5.28216e-011 1.2921e-014 -6.02303e-014
Spine  0.878643 -2.45991 6.45084
Spine1  7.15666 -2.46577 -0.0685513
HEad  4.39741 54.0607 -17.2317
LeftShoulder1  1.44624 -2.13607 -20.3948
LeftArm  -5.57468 -1.72158 -54.3006
LeftForeArm  13.147 -4.75368 -10.9271
LeftHand  -0.0596841 1.44475 1.55115
RightShoulder  1.21348 0.827988 23.1121
RightArm  -33.318 -11.0292 40.3999
RightForeArm  51.144 0.292894 0.846021
RightHand  -0.0130081 -5.45889 -10.7928
LeftUpLeg  5.64836 -7.38455 -10.4604
LeftLeg  26.3778 1.35269 1.08287
LeftFoot  -20.0487 0.598164 6.26588
LeftToes  9.43379e-011 5.24309e-011 -4.66411e-011
1348
root  51.9328 37.1479 -49.8166 170.292 -70.7761 -165.282
RightUpLeg  -31.1157 10.1155 -10.0587
RightLeg  18.5494 4.36254 1.42571
RightFoot  -4.03223 -1.31241 19.926
RightToes  -5.28216e-011 1.2921e-014 -6.02303e-014
Spine  1.67963 -3.0493 8.23553
Spine1  7.54447 -3.06989 -0.189774
HEad  4.16307 54.5849 -18.3649
LeftShoulder1  1.55677 -2.39936 -21.1561
LeftArm  -7.27462 -0.966336 -53.3986
LeftForeArm  11.7233 -3.9406 -10.4868
LeftHand  -0.0754969 1.52203 2.05319
RightShoulder  1.21943 0.84826 23.1134
RightArm  -33.2969 -8.662 41.3557
RightForeArm  51.4721 -1.00374 0.560083
RightHand  0.0312126 -5.88358 -11.9675
LeftUpLeg  5.85591 -5.79395 -7.54096
LeftLeg  32.8022 -2.04579 -1.05609
LeftFoot  -18.1 0.325429 3.66844
LeftToes  9.43379e-011 5.24309e-011 -4.66411e-011
1349
root  50.642 36.8026 -50.5033 162.575 -73.1598 -158.271
RightUpLeg  -31.1006 6.89811 -7.49096
RightLeg  26.3555 4.58913 2.25073
RightFoot  -5.66539 -1.07558 20.7006
RightToes  -5.28216e-011 1.2921e-014 -6.02303e-014
Spine  2.84336 -3.72417 9.52406
Spine1  7.47482 -3.68177 -0.154428
HEad  3.69121 54.4401 -19.6875
LeftShoulder1  1.68627 -2.68936 -22.0524
LeftArm  -8.61497 -1.0079 -53.2618
LeftForeArm  9.05575 -2.24412 -9.97816
LeftHand  -0.00155426 0.718811 -0.0592068
RightShoulder  1.26923 1.00677 23.2036
RightArm  -33.4576 -5.14169 42.4552
RightForeArm  51.2193 -3.21652 -0.0946663
RightHand  0.0465354 -5.96163 -13.2164
LeftUpLeg  2.62876 -2.96676 -3.21966
LeftLeg  44.4474 -5.042 -4.86425
LeftFoot  -12.3902 0.0686366 -0.623887
LeftToes  9.43379e-011 5.24309e-011 -4.66411e-011
1350
root  49.5344 36.6893 -51.0032 152.988 -76.3119 -148.417
RightUpLeg  -30.6434 2.83511 -5.55866
RightLeg  31.0266 4.77164 2.85785
RightFoot  -7.52532 -0.618573 16.9072
RightToes  -5.28216e-011 1.2921e-014 -6.02303e-014
Spine  3.21971 -4.06664 10.4445
Spine1  7.80394 -4.23362 0.984486
HEad  4.48875 52.5924 -18.6429
LeftShoulder1  1.74527 -3.03262 -21.4234
LeftArm  -10.391 -1.22504 -55.277
LeftForeArm  6.48209 -0.0347799 -9.28821
LeftHand  -0.00867238 1.08861 0.0754031
RightShoulder  1.27188 1.04439 22.9993
RightArm  -33.7085 -2.10017 44.1137
RightForeArm  50.7599 -5.04067 -0.73458
RightHand  0.0556345 -6.00215 -13.9357
LeftUpLeg  -4.01768 -2.00359 0.337256
LeftLeg  56.4191 -4.76366 -7.17018
LeftFoot  -3.56459 0.509996 -7.18353
LeftToes  9.43379e-011 5.24309e-011 -4.66411e-011
1351
root  48.573 36.7788 -51.3724 139.834 -78.618 -134.894
RightUpLeg  -28.9178 2.40779 -4.50335
RightLeg  32.292 2.30342 1.32236
RightFoot  -9.67486 -0.306642 16.4303
RightToes  -5.28216e-011 1.2921e-014 -6.02303e-014
Spine  4.12212 -3.84645 11.9703
Spine1  7.84865 -3.96566 1.9021
HEad  4.93334 49.9516 -17.6812
LeftShoulder1  1.77392 -3.21689 -21.0628
LeftArm  -11.435 -1.46113 -56.9463
LeftForeArm  3.98624 0.85561 -8.88073
LeftHand  -0.00268663 1.22858 -0.113133
RightShoulder  1.27765 1.05636 23.0555
RightArm  -34.9385 0.106176 45.8913
RightForeArm  50.5174 -5.09808 -1.55554
RightHand  0.0455774 -5.93198 -13.6199
LeftUpLeg  -11.2937 -0.724856 2.64608
LeftLeg  65.6236 -1.97059 -4.0662
LeftFoot  -0.457141 0.719732 -7.52011
LeftToes  9.43379e-011 5.24309e-011 -4.66411e-011
